# Blender v2.93.3 OBJ File: ''
# www.blender.org
mtllib BoxUp.mtl
o Cube
v 0.000000 0.000000 -1.000000
v 1.000000 0.191507 0.000000
v 0.000000 -1.000000 0.000000
v -1.000000 0.000000 0.000000
v 0.000000 0.000000 1.000000
v 0.000000 1.000000 0.000000
v 0.500000 0.000000 -1.000000
v -0.500000 0.000000 -1.000000
v 0.000000 -0.500000 -1.000000
v 0.000000 0.500000 -1.000000
v 1.000000 0.430677 0.500000
v 1.000000 0.430677 -0.500000
v 1.000000 -0.500000 0.000000
v 1.000000 0.440688 0.000000
v 0.000000 -1.000000 0.500000
v 0.000000 -1.000000 -0.500000
v -0.500000 -1.000000 0.000000
v 0.500000 -1.000000 0.000000
v -1.000000 0.000000 -0.500000
v -1.000000 0.000000 0.500000
v -1.000000 -0.500000 0.000000
v -1.000000 0.500000 0.000000
v -0.500000 0.000000 1.000000
v 0.500000 0.000000 1.000000
v 0.000000 -0.500000 1.000000
v 0.000000 0.500000 1.000000
v 0.000000 1.000000 0.500000
v 0.000000 1.000000 -0.500000
v 0.500000 1.000000 0.000000
v -0.500000 1.000000 0.000000
v -0.500000 1.000000 -0.500000
v 0.500000 1.000000 -0.500000
v 0.500000 1.000000 0.500000
v 0.500000 0.500000 1.000000
v 0.500000 -0.500000 1.000000
v -0.500000 -0.500000 1.000000
v -1.000000 0.500000 0.500000
v -1.000000 -0.500000 0.500000
v -1.000000 -0.500000 -0.500000
v 0.500000 -1.000000 -0.500000
v -0.500000 -1.000000 -0.500000
v -0.500000 -1.000000 0.500000
v 1.000000 0.679901 -0.500000
v 1.000000 -0.500000 -0.500000
v 1.000000 -0.500000 0.500000
v -0.500000 0.500000 -1.000000
v -0.500000 -0.500000 -1.000000
v 0.500000 -0.500000 -1.000000
v 0.500000 0.500000 -1.000000
v 1.000000 0.679901 0.500000
v 0.500000 -1.000000 0.500000
v -1.000000 0.500000 -0.500000
v -0.500000 0.500000 1.000000
v -0.500000 1.000000 0.500000
v 0.880696 0.430677 -0.500000
v 0.880696 0.191507 0.000000
v 0.880696 0.440688 0.000000
v 0.880696 0.430677 0.500000
v 0.880696 0.679901 -0.500000
v 0.880696 0.679901 0.500000
v 0.905961 1.000000 -0.905961
v 1.000000 0.905961 -0.905961
v 0.905961 0.905961 -1.000000
v 0.905961 -0.905961 -1.000000
v 1.000000 -0.905961 -0.905961
v 0.905961 -1.000000 -0.905961
v 0.905961 1.000000 0.905961
v 0.905961 0.905961 1.000000
v 1.000000 0.905961 0.905961
v 1.000000 -0.905961 0.905961
v 0.905961 -0.905961 1.000000
v 0.905961 -1.000000 0.905961
v -0.905961 1.000000 -0.905961
v -0.905961 0.905961 -1.000000
v -1.000000 0.905961 -0.905961
v -0.905961 -1.000000 -0.905961
v -1.000000 -0.905961 -0.905961
v -0.905961 -0.905961 -1.000000
v -1.000000 0.905961 0.905961
v -0.905961 0.905961 1.000000
v -0.905961 1.000000 0.905961
v -0.905961 -1.000000 0.905961
v -0.905961 -0.905961 1.000000
v -1.000000 -0.905961 0.905961
v -0.905961 -1.000000 0.000000
v -1.000000 -0.905961 0.000000
v 0.000000 -1.000000 -0.905961
v 0.000000 -0.905961 -1.000000
v 1.000000 0.081001 -0.905961
v 0.905961 0.000000 -1.000000
v -0.905961 0.000000 1.000000
v -1.000000 0.000000 0.905961
v 0.905961 0.000000 1.000000
v 1.000000 0.081001 0.905961
v -0.905961 0.000000 -1.000000
v -1.000000 0.000000 -0.905961
v 0.000000 1.000000 0.905961
v 0.000000 0.905961 1.000000
v 0.905961 1.000000 0.000000
v 1.000000 0.905961 0.000000
v 0.000000 -1.000000 0.905961
v 0.000000 -0.905961 1.000000
v -0.905961 1.000000 0.000000
v -1.000000 0.905961 0.000000
v 0.000000 1.000000 -0.905961
v 0.000000 0.905961 -1.000000
v 0.905961 -1.000000 0.000000
v 1.000000 -0.905961 0.000000
v -1.000000 -0.905961 0.500000
v -0.905961 -1.000000 0.500000
v -0.500000 -0.905961 -1.000000
v -0.500000 -1.000000 -0.905961
v 0.905961 -0.500000 -1.000000
v 1.000000 -0.500000 -0.905961
v -1.000000 0.500000 0.905961
v -0.905961 0.500000 1.000000
v 1.000000 -0.500000 0.905961
v 0.905961 -0.500000 1.000000
v -1.000000 -0.500000 -0.905961
v -0.905961 -0.500000 -1.000000
v -0.500000 0.905961 1.000000
v -0.500000 1.000000 0.905961
v 1.000000 0.905961 0.500000
v 0.905961 1.000000 0.500000
v 0.500000 -0.905961 1.000000
v 0.500000 -1.000000 0.905961
v -1.000000 0.905961 -0.500000
v -0.905961 1.000000 -0.500000
v 0.500000 0.905961 -1.000000
v 0.500000 1.000000 -0.905961
v 1.000000 -0.905961 -0.500000
v 0.905961 -1.000000 -0.500000
v -1.000000 -0.905961 -0.500000
v -0.905961 -1.000000 -0.500000
v 0.500000 -0.905961 -1.000000
v 0.500000 -1.000000 -0.905961
v 0.905961 0.500000 -1.000000
v 1.000000 0.533836 -0.905961
v -1.000000 -0.500000 0.905961
v -0.905961 -0.500000 1.000000
v 1.000000 0.533836 0.905961
v 0.905961 0.500000 1.000000
v -1.000000 0.500000 -0.905961
v -0.905961 0.500000 -1.000000
v 0.500000 0.905961 1.000000
v 0.500000 1.000000 0.905961
v 1.000000 0.905961 -0.500000
v 0.905961 1.000000 -0.500000
v -0.500000 -0.905961 1.000000
v -0.500000 -1.000000 0.905961
v -1.000000 0.905961 0.500000
v -0.905961 1.000000 0.500000
v -0.500000 0.905961 -1.000000
v -0.500000 1.000000 -0.905961
v 1.000000 -0.905961 0.500000
v 0.905961 -1.000000 0.500000
vt 0.136755 0.687500
vt 0.187500 0.687500
vt 0.187500 0.738245
vt 0.136755 0.738245
vt 0.812500 0.687500
vt 0.863245 0.687500
vt 0.863245 0.738245
vt 0.812500 0.738245
vt 0.562500 0.261755
vt 0.613245 0.261755
vt 0.613245 0.312500
vt 0.562500 0.312500
vt 0.812500 0.511755
vt 0.863245 0.511755
vt 0.863245 0.562500
vt 0.812500 0.562500
vt 0.562500 0.761755
vt 0.613245 0.761755
vt 0.613245 0.812500
vt 0.562500 0.812500
vt 0.562500 0.511755
vt 0.611900 0.511755
vt 0.606639 0.562500
vt 0.562500 0.562500
vt 0.437500 0.511755
vt 0.500000 0.511755
vt 0.500000 0.562500
vt 0.437500 0.562500
vt 0.437500 0.312500
vt 0.500000 0.312500
vt 0.500000 0.375000
vt 0.437500 0.375000
vt 0.687500 0.511755
vt 0.750000 0.511755
vt 0.750000 0.562500
vt 0.687500 0.562500
vt 0.437500 0.761755
vt 0.500000 0.761755
vt 0.500000 0.812500
vt 0.437500 0.812500
vt 0.500000 0.625000
vt 0.437500 0.625000
vt 0.386755 0.875000
vt 0.437500 0.875000
vt 0.437500 0.937500
vt 0.386755 0.937500
vt 0.250000 0.687500
vt 0.312500 0.687500
vt 0.312500 0.738245
vt 0.250000 0.738245
vt 0.187500 0.562500
vt 0.250000 0.562500
vt 0.250000 0.625000
vt 0.187500 0.625000
vt 0.437500 0.261755
vt 0.500000 0.261755
vt 0.437500 0.062500
vt 0.500000 0.062500
vt 0.500000 0.125000
vt 0.437500 0.125000
vt 0.863245 0.625000
vt 0.812500 0.625000
vt 0.500000 0.937500
vt 0.562500 0.937500
vt 0.562500 0.988245
vt 0.500000 0.988245
vt 0.500000 0.875000
vt 0.636755 0.562500
vt 0.687500 0.625000
vt 0.636755 0.625000
vt 0.750000 0.687500
vt 0.750000 0.738245
vt 0.750000 0.625000
vt 0.562500 0.375000
vt 0.613245 0.375000
vt 0.613245 0.437500
vt 0.562500 0.437500
vt 0.562500 0.187500
vt 0.613245 0.187500
vt 0.613245 0.238245
vt 0.562500 0.238245
vt 0.687500 0.687500
vt 0.636755 0.687500
vt 0.613245 0.488245
vt 0.562500 0.488245
vt 0.312500 0.625000
vt 0.363245 0.625000
vt 0.363245 0.687500
vt 0.562500 0.687500
vt 0.606639 0.687500
vt 0.611900 0.738245
vt 0.562500 0.738245
vt 0.562500 0.625000
vt 0.614492 0.625000
vt 0.562500 0.875000
vt 0.500000 0.187500
vt 0.500000 0.238245
vt 0.386755 0.687500
vt 0.437500 0.687500
vt 0.437500 0.738245
vt 0.386755 0.738245
vt 0.363245 0.738245
vt 0.136755 0.562500
vt 0.136755 0.625000
vt 0.386755 0.812500
vt 0.562500 0.062500
vt 0.562500 0.125000
vt 0.500000 0.687500
vt 0.500000 0.738245
vt 0.613245 0.937500
vt 0.613245 0.988245
vt 0.386755 0.375000
vt 0.437500 0.437500
vt 0.386755 0.437500
vt 0.437500 0.988245
vt 0.386755 0.988245
vt 0.136755 0.511755
vt 0.187500 0.511755
vt 0.386755 0.062500
vt 0.386755 0.125000
vt 0.437500 0.187500
vt 0.312500 0.562500
vt 0.500000 0.437500
vt 0.500000 0.488245
vt 0.687500 0.738245
vt 0.636755 0.738245
vt 0.562500 0.011755
vt 0.613245 0.011755
vt 0.613245 0.062500
vt 0.250000 0.511755
vt 0.312500 0.511755
vt 0.386755 0.011755
vt 0.437500 0.011755
vt 0.386755 0.187500
vt 0.500000 0.687500
vt 0.562500 0.687500
vt 0.500000 0.011755
vt 0.437500 0.488245
vt 0.386755 0.488245
vt 0.363245 0.562500
vt 0.363245 0.511755
vt 0.386755 0.761755
vt 0.386755 0.562500
vt 0.386755 0.625000
vt 0.386755 0.261755
vt 0.386755 0.312500
vt 0.437500 0.238245
vt 0.386755 0.238245
vt 0.386755 0.511755
vt 0.562500 0.625000
vt 0.613245 0.125000
vt 0.613245 0.875000
vt 0.500000 0.562500
vt 0.500000 0.625000
vt 0.562500 0.562500
vt 0.625000 0.511755
vt 0.625000 0.511755
vt 0.613245 0.500000
vt 0.386755 0.500000
vt 0.375000 0.488245
vt 0.625000 0.761755
vt 0.625000 0.761755
vt 0.613245 0.750000
vt 0.386755 0.750000
vt 0.375000 0.761755
vt 0.375000 0.761755
vt 0.625000 0.261755
vt 0.625000 0.261755
vt 0.613245 0.250000
vt 0.125000 0.511755
vt 0.136755 0.500000
vt 0.613245 0.000000
vt 0.625000 0.011755
vt 0.136755 0.750000
vt 0.125000 0.738245
vt 0.125000 0.687500
vt 0.187500 0.500000
vt 0.562500 0.000000
vt 0.625000 0.937500
vt 0.625000 0.988245
vt 0.363245 0.750000
vt 0.312500 0.750000
vt 0.625000 0.187500
vt 0.625000 0.238245
vt 0.625000 0.437500
vt 0.625000 0.488245
vt 0.125000 0.625000
vt 0.125000 0.562500
vt 0.250000 0.500000
vt 0.312500 0.500000
vt 0.437500 0.000000
vt 0.500000 0.000000
vt 0.625000 0.812500
vt 0.625000 0.875000
vt 0.250000 0.750000
vt 0.187500 0.750000
vt 0.625000 0.062500
vt 0.625000 0.125000
vt 0.625000 0.312500
vt 0.625000 0.375000
vt 0.363245 0.500000
vt 0.386755 0.000000
vt 0.636755 0.511755
vn 0.0000 -1.0000 0.0000
vn 0.0000 1.0000 0.0000
vn 0.0000 0.0000 -1.0000
vn 0.0000 0.0000 1.0000
vn 1.0000 0.0000 0.0000
vn -1.0000 0.0000 0.0000
vn 0.0000 -0.9021 0.4316
vn 0.0000 0.9021 0.4315
vn 0.0000 -0.9021 -0.4316
vn 0.0000 0.9021 -0.4315
vn 0.5774 0.5774 -0.5774
vn 0.5774 -0.5774 -0.5774
vn 0.5774 0.5774 0.5774
vn 0.5774 -0.5774 0.5774
vn -0.5774 0.5774 -0.5774
vn -0.5774 -0.5774 -0.5774
vn -0.5774 0.5774 0.5774
vn -0.5774 -0.5774 0.5774
vn -0.7071 -0.7071 0.0000
vn 0.0000 -0.7071 -0.7071
vn 0.7071 0.0000 -0.7071
vn -0.7071 0.0000 0.7071
vn 0.7071 0.0000 0.7071
vn -0.7071 0.0000 -0.7071
vn 0.0000 0.7071 0.7071
vn 0.7071 0.7071 0.0000
vn 0.0000 -0.7071 0.7071
vn -0.7071 0.7071 0.0000
vn 0.0000 0.7071 -0.7071
vn 0.7071 -0.7071 0.0000
usemtl Material
s off
f 110/1/1 42/2/1 150/3/1 82/4/1
f 54/5/2 152/6/2 81/7/2 122/8/2
f 144/9/3 74/10/3 153/11/3 46/12/3
f 154/13/2 73/14/2 128/15/2 31/16/2
f 142/17/4 68/18/4 145/19/4 34/20/4
f 138/21/5 62/22/5 147/23/5 43/24/5
f 114/25/5 89/26/5 12/27/5 44/28/5
f 47/29/3 8/30/3 1/31/3 9/32/3
f 130/33/2 105/34/2 28/35/2 32/36/2
f 118/37/4 93/38/4 24/39/4 35/40/4
f 44/28/5 12/27/5 2/41/5 13/42/5
f 102/43/4 25/44/4 36/45/4 149/46/4
f 15/47/1 51/48/1 126/49/1 101/50/1
f 41/51/1 16/52/1 3/53/1 17/54/1
f 120/55/3 95/56/3 8/30/3 47/29/3
f 38/57/6 20/58/6 4/59/6 21/60/6
f 31/16/2 128/15/2 103/61/2 30/62/2
f 23/63/4 53/64/4 116/65/4 91/66/4
f 35/40/4 24/39/4 5/67/4 25/44/4
f 148/68/2 32/36/2 29/69/2 99/70/2
f 27/71/2 54/5/2 122/8/2 97/72/2
f 32/36/2 28/35/2 6/73/2 29/69/2
f 105/34/2 154/13/2 31/16/2 28/35/2
f 28/35/2 31/16/2 30/62/2 6/73/2
f 10/74/3 106/75/3 129/76/3 49/77/3
f 52/78/6 127/79/6 75/80/6 143/81/6
f 99/70/2 29/69/2 33/82/2 124/83/2
f 49/77/3 129/76/3 63/84/3 137/85/3
f 18/86/1 107/87/1 156/88/1 51/48/1
f 50/89/5 123/90/5 69/91/5 141/92/5
f 14/93/5 100/94/5 123/90/5 50/89/5
f 29/69/2 6/73/2 27/71/2 33/82/2
f 24/39/4 34/20/4 26/95/4 5/67/4
f 19/96/6 52/78/6 143/81/6 96/97/6
f 155/98/5 45/99/5 117/100/5 70/101/5
f 42/2/1 15/47/1 101/50/1 150/3/1
f 51/48/1 156/88/1 72/102/1 126/49/1
f 93/38/4 142/17/4 34/20/4 24/39/4
f 134/103/1 41/51/1 17/54/1 85/104/1
f 125/105/4 35/40/4 25/44/4 102/43/4
f 25/44/4 5/67/4 23/63/4 36/45/4
f 20/58/6 37/106/6 22/107/6 4/59/6
f 11/108/5 50/89/5 141/92/5 94/109/5
f 53/64/4 121/110/4 80/111/4 116/65/4
f 88/112/3 9/32/3 48/113/3 135/114/3
f 149/46/4 36/45/4 140/115/4 83/116/4
f 36/45/4 23/63/4 91/66/4 140/115/4
f 76/117/1 112/118/1 41/51/1 134/103/1
f 109/119/6 38/57/6 21/60/6 86/120/6
f 21/60/6 4/59/6 19/96/6 39/121/6
f 16/52/1 40/122/1 18/86/1 3/53/1
f 7/123/3 49/77/3 137/85/3 90/124/3
f 124/83/2 33/82/2 146/125/2 67/126/2
f 85/104/1 17/54/1 42/2/1 110/1/1
f 115/127/6 79/128/6 151/129/6 37/106/6
f 87/130/1 136/131/1 40/122/1 16/52/1
f 84/132/6 139/133/6 38/57/6 109/119/6
f 86/120/6 21/60/6 39/121/6 133/134/6
f 17/54/1 3/53/1 15/47/1 42/2/1
f 50/89/3 11/108/3 58/135/3 60/136/3
f 139/133/6 92/137/6 20/58/6 38/57/6
f 135/114/3 48/113/3 113/138/3 64/139/3
f 40/122/1 132/140/1 107/87/1 18/86/1
f 136/131/1 66/141/1 132/140/1 40/122/1
f 89/26/5 138/21/5 43/24/5 12/27/5
f 71/142/4 118/37/4 35/40/4 125/105/4
f 131/143/5 44/28/5 13/42/5 108/144/5
f 13/42/5 2/41/5 11/108/5 45/99/5
f 8/30/3 46/12/3 10/74/3 1/31/3
f 33/82/2 27/71/2 97/72/2 146/125/2
f 78/145/3 120/55/3 47/29/3 111/146/3
f 112/118/1 87/130/1 16/52/1 41/51/1
f 133/134/6 39/121/6 119/147/6 77/148/6
f 95/56/3 144/9/3 46/12/3 8/30/3
f 65/149/5 114/25/5 44/28/5 131/143/5
f 111/146/3 47/29/3 9/32/3 88/112/3
f 9/32/3 1/31/3 7/123/3 48/113/3
f 48/113/3 7/123/3 90/124/3 113/138/3
f 1/31/3 10/74/3 49/77/3 7/123/3
f 46/12/3 153/11/3 106/75/3 10/74/3
f 45/99/5 11/108/5 94/109/5 117/100/5
f 14/93/7 50/89/7 60/136/7 57/150/7
f 43/24/5 147/23/5 100/94/5 14/93/5
f 30/62/2 103/61/2 152/6/2 54/5/2
f 3/53/1 18/86/1 51/48/1 15/47/1
f 108/144/5 13/42/5 45/99/5 155/98/5
f 39/121/6 19/96/6 96/97/6 119/147/6
f 4/59/6 22/107/6 52/78/6 19/96/6
f 37/106/6 151/129/6 104/151/6 22/107/6
f 92/137/6 115/127/6 37/106/6 20/58/6
f 5/67/4 26/95/4 53/64/4 23/63/4
f 34/20/4 145/19/4 98/152/4 26/95/4
f 26/95/4 98/152/4 121/110/4 53/64/4
f 6/73/2 30/62/2 54/5/2 27/71/2
f 22/107/6 104/151/6 127/79/6 52/78/6
f 2/41/8 12/27/8 55/153/8 56/154/8
f 12/27/4 43/24/4 59/155/4 55/153/4
f 43/24/9 14/93/9 57/150/9 59/155/9
f 11/108/10 2/41/10 56/154/10 58/135/10
f 61/156/11 62/157/11 63/158/11
f 64/139/12 65/159/12 66/160/12
f 67/161/13 68/162/13 69/163/13
f 70/164/14 71/165/14 72/166/14
f 73/167/15 74/168/15 75/169/15
f 76/117/16 77/170/16 78/171/16
f 79/128/17 80/172/17 81/173/17
f 82/4/18 83/174/18 84/175/18
f 110/1/19 82/4/19 84/175/19 109/176/19
f 112/118/20 76/117/20 78/171/20 111/177/20
f 114/25/21 65/149/21 64/139/21 113/138/21
f 116/178/22 80/172/22 79/128/22 115/127/22
f 118/37/23 71/142/23 70/101/23 117/100/23
f 120/55/24 78/145/24 77/148/24 119/147/24
f 122/179/25 81/180/25 80/111/25 121/110/25
f 124/83/26 67/126/26 69/91/26 123/90/26
f 126/49/27 72/102/27 71/181/27 125/182/27
f 128/183/28 73/184/28 75/80/28 127/79/28
f 130/185/29 61/186/29 63/84/29 129/76/29
f 132/140/30 66/141/30 65/149/30 131/143/30
f 134/103/19 85/104/19 86/187/19 133/188/19
f 136/131/20 87/130/20 88/189/20 135/190/20
f 138/21/21 89/26/21 90/124/21 137/85/21
f 140/191/22 91/192/22 92/137/22 139/133/22
f 142/17/23 93/38/23 94/109/23 141/92/23
f 144/9/24 95/56/24 96/97/24 143/81/24
f 146/193/25 97/194/25 98/152/25 145/19/25
f 148/68/26 99/70/26 100/94/26 147/23/26
f 150/3/27 101/50/27 102/195/27 149/196/27
f 152/197/28 103/198/28 104/151/28 151/129/28
f 154/199/29 105/200/29 106/75/29 153/11/29
f 156/88/30 107/87/30 108/144/30 155/98/30
f 85/104/19 110/1/19 109/176/19 86/187/19
f 87/130/20 112/118/20 111/177/20 88/189/20
f 89/26/21 114/25/21 113/138/21 90/124/21
f 91/192/22 116/178/22 115/127/22 92/137/22
f 93/38/23 118/37/23 117/100/23 94/109/23
f 95/56/24 120/55/24 119/147/24 96/97/24
f 97/194/25 122/179/25 121/110/25 98/152/25
f 99/70/26 124/83/26 123/90/26 100/94/26
f 101/50/27 126/49/27 125/182/27 102/195/27
f 103/198/28 128/183/28 127/79/28 104/151/28
f 105/200/29 130/185/29 129/76/29 106/75/29
f 107/87/30 132/140/30 131/143/30 108/144/30
f 76/117/19 134/103/19 133/188/19 77/170/19
f 66/141/20 136/131/20 135/190/20 64/201/20
f 62/22/21 138/21/21 137/85/21 63/84/21
f 83/202/22 140/191/22 139/133/22 84/132/22
f 68/18/23 142/17/23 141/92/23 69/91/23
f 74/10/24 144/9/24 143/81/24 75/80/24
f 67/161/25 146/193/25 145/19/25 68/18/25
f 61/203/26 148/68/26 147/23/26 62/22/26
f 82/4/27 150/3/27 149/196/27 83/174/27
f 81/173/28 152/197/28 151/129/28 79/128/28
f 73/167/29 154/199/29 153/11/29 74/10/29
f 72/102/30 156/88/30 155/98/30 70/101/30
f 61/203/2 130/33/2 32/36/2 148/68/2
usemtl Material.001
f 55/153/5 59/155/5 57/150/5 56/154/5
f 56/154/5 57/150/5 60/136/5 58/135/5
