# Blender v2.79 (sub 0) OBJ File: ''
# www.blender.org
mtllib Sword.mtl
o Cylinder
v -0.065000 -0.000000 -0.130000
v 0.065000 0.000000 -0.130000
v -0.065000 -0.112583 -0.065000
v 0.065000 -0.112583 -0.065000
v -0.065000 -0.112583 0.065000
v 0.065000 -0.112583 0.065000
v -0.065000 0.000000 0.130000
v 0.065000 0.000000 0.130000
v -0.065000 0.112583 0.065000
v 0.065000 0.112583 0.065000
v -0.065000 0.112583 -0.065000
v 0.065000 0.112583 -0.065000
v -0.065000 -0.000000 -0.105578
v -0.065000 -0.091434 -0.052789
v -0.065000 -0.091434 0.052789
v -0.065000 0.000000 0.105578
v -0.065000 0.091434 0.052789
v -0.065000 0.091434 -0.052789
v -0.175394 -0.000000 -0.105578
v -0.175394 -0.091434 -0.052789
v -0.175394 -0.091434 0.052789
v -0.175394 -0.000000 0.105578
v -0.175394 0.091434 0.052789
v -0.175394 0.091434 -0.052789
v -0.175394 -0.000000 -0.130589
v -0.175394 -0.113094 -0.065295
v -0.175394 -0.113094 0.065295
v -0.175394 -0.000000 0.130589
v -0.175394 0.113094 0.065295
v -0.175394 0.113094 -0.065295
v -0.297150 -0.000000 -0.130589
v -0.297150 -0.113094 -0.065295
v -0.297150 -0.113094 0.065295
v -0.297150 -0.000000 0.130589
v -0.297150 0.113094 0.065295
v -0.297150 0.113094 -0.065295
v -0.297150 -0.000000 -0.093844
v -0.297150 -0.081271 -0.046922
v -0.297150 -0.081271 0.046922
v -0.297150 -0.000000 0.093844
v -0.297150 0.081271 0.046922
v -0.297150 0.081271 -0.046922
v -0.407792 -0.000000 -0.093844
v -0.407792 -0.081271 -0.046922
v -0.407792 -0.081271 0.046922
v -0.407792 -0.000000 0.093844
v -0.407792 0.081271 0.046922
v -0.407792 0.081271 -0.046922
v -0.407792 -0.000000 -0.126467
v -0.407792 -0.117896 -0.063233
v -0.407792 -0.117896 0.063233
v -0.407792 -0.000000 0.126467
v -0.407792 0.117896 0.063233
v -0.407792 0.117896 -0.063233
v -0.523314 -0.000000 -0.126467
v -0.523314 -0.117896 -0.063233
v -0.523314 -0.117896 0.063233
v -0.523314 -0.000000 0.126467
v -0.523314 0.117896 0.063233
v -0.523314 0.117896 -0.063233
v -0.523346 0.000000 -0.084204
v -0.523346 -0.069398 -0.042102
v -0.523346 -0.069398 0.042102
v -0.523346 0.000000 0.084204
v -0.523346 0.069398 0.042102
v -0.523346 0.069398 -0.042102
v -4.330003 -0.000000 -0.084204
v -4.330003 -0.069398 -0.042102
v -4.330003 -0.069398 0.042102
v -4.330003 -0.000000 0.084204
v -4.330003 0.069398 0.042102
v -4.330003 0.069398 -0.042102
v 0.065000 -0.083301 -0.048094
v 0.065000 0.000000 -0.096188
v 0.065000 -0.083301 0.048094
v 0.065000 0.000000 0.096188
v 0.065000 0.083301 0.048094
v 0.065000 0.083301 -0.048094
v 0.172482 -0.083301 -0.048094
v 0.172482 0.000000 -0.096188
v 0.172482 -0.083301 0.048094
v 0.172482 0.000000 0.096188
v 0.172482 0.083301 0.048094
v 0.172482 0.083301 -0.048094
v 0.172482 -0.113062 -0.065276
v 0.172482 0.000000 -0.130553
v 0.172482 -0.113062 0.065276
v 0.172482 0.000000 0.130553
v 0.172482 0.113062 0.065276
v 0.172482 0.113062 -0.065276
v 0.292525 -0.113062 -0.065276
v 0.292525 0.000000 -0.130553
v 0.292525 -0.113062 0.065276
v 0.292525 0.000000 0.130553
v 0.292525 0.113062 0.065276
v 0.292525 0.113062 -0.065276
vn -0.0000 0.5187 0.8550
vn -1.0000 0.0000 0.0000
vn -0.0000 1.0000 0.0000
vn 0.0000 -0.5187 -0.8550
vn -0.0000 0.5187 -0.8550
vn 0.0000 -1.0000 0.0000
vn 0.0000 -0.5187 0.8550
vn -0.0000 -0.5000 -0.8660
vn 0.0000 -0.5000 0.8660
vn 0.0000 0.5000 0.8660
vn 1.0000 0.0000 0.0000
vn -0.0000 0.5000 -0.8660
vn 0.0000 0.4727 0.8812
vn -1.0000 0.0004 0.0007
vn 0.0000 -0.4727 -0.8812
vn 0.0000 0.4727 -0.8812
vn 0.0000 -0.4727 0.8812
vn -1.0000 0.0007 0.0000
vn -1.0000 -0.0004 -0.0007
vn -1.0000 0.0004 -0.0007
vn -1.0000 -0.0007 0.0000
vn -1.0000 -0.0004 0.0007
usemtl Material.001
s off
f 64//1 65//1 71//1 70//1
f 68//2 71//2 72//2
f 65//3 66//3 72//3 71//3
f 61//4 62//4 68//4 67//4
f 66//5 61//5 67//5 72//5
f 62//6 63//6 69//6 68//6
f 63//7 64//7 70//7 69//7
f 72//2 67//2 68//2
f 68//2 69//2 71//2
f 70//2 71//2 69//2
usemtl Material.002
f 1//8 2//8 4//8 3//8
f 3//6 4//6 6//6 5//6
f 5//9 6//9 8//9 7//9
f 7//10 8//10 10//10 9//10
f 2//11 12//11 78//11 74//11
f 9//3 10//3 12//3 11//3
f 11//12 12//12 2//12 1//12
f 9//2 11//2 18//2 17//2
f 7//2 9//2 17//2 16//2
f 5//2 7//2 16//2 15//2
f 11//2 1//2 13//2 18//2
f 3//2 5//2 15//2 14//2
f 1//2 3//2 14//2 13//2
f 22//11 23//11 29//11 28//11
f 28//10 29//10 35//10 34//10
f 23//11 24//11 30//11 29//11
f 19//11 20//11 26//11 25//11
f 24//11 19//11 25//11 30//11
f 20//11 21//11 27//11 26//11
f 21//11 22//11 28//11 27//11
f 34//2 35//2 41//2 40//2
f 29//3 30//3 36//3 35//3
f 25//8 26//8 32//8 31//8
f 30//12 25//12 31//12 36//12
f 26//6 27//6 33//6 32//6
f 27//9 28//9 34//9 33//9
f 35//2 36//2 42//2 41//2
f 31//2 32//2 38//2 37//2
f 36//2 31//2 37//2 42//2
f 32//2 33//2 39//2 38//2
f 33//2 34//2 40//2 39//2
f 46//11 47//11 53//11 52//11
f 52//13 53//13 59//13 58//13
f 47//11 48//11 54//11 53//11
f 43//11 44//11 50//11 49//11
f 48//11 43//11 49//11 54//11
f 44//11 45//11 51//11 50//11
f 45//11 46//11 52//11 51//11
f 58//14 59//14 65//14 64//14
f 53//3 54//3 60//3 59//3
f 49//15 50//15 56//15 55//15
f 54//16 49//16 55//16 60//16
f 50//6 51//6 57//6 56//6
f 51//17 52//17 58//17 57//17
f 59//18 60//18 66//18 65//18
f 55//19 56//19 62//19 61//19
f 60//20 55//20 61//20 66//20
f 56//21 57//21 63//21 62//21
f 57//22 58//22 64//22 63//22
f 6//11 4//11 73//11 75//11
f 4//11 2//11 74//11 73//11
f 12//11 10//11 77//11 78//11
f 10//11 8//11 76//11 77//11
f 8//11 6//11 75//11 76//11
f 83//2 82//2 88//2 89//2
f 89//10 88//10 94//10 95//10
f 84//2 83//2 89//2 90//2
f 79//2 80//2 86//2 85//2
f 80//2 84//2 90//2 86//2
f 81//2 79//2 85//2 87//2
f 82//2 81//2 87//2 88//2
f 92//11 94//11 93//11
f 90//3 89//3 95//3 96//3
f 85//8 86//8 92//8 91//8
f 86//12 90//12 96//12 92//12
f 87//6 85//6 91//6 93//6
f 88//9 87//9 93//9 94//9
f 93//11 91//11 92//11
f 92//11 96//11 95//11
f 95//11 94//11 92//11
usemtl Material.003
f 16//10 17//10 23//10 22//10
f 17//3 18//3 24//3 23//3
f 13//8 14//8 20//8 19//8
f 18//12 13//12 19//12 24//12
f 14//6 15//6 21//6 20//6
f 15//9 16//9 22//9 21//9
f 40//10 41//10 47//10 46//10
f 41//3 42//3 48//3 47//3
f 37//8 38//8 44//8 43//8
f 42//12 37//12 43//12 48//12
f 38//6 39//6 45//6 44//6
f 39//9 40//9 46//9 45//9
f 77//10 76//10 82//10 83//10
f 78//3 77//3 83//3 84//3
f 73//8 74//8 80//8 79//8
f 74//12 78//12 84//12 80//12
f 75//6 73//6 79//6 81//6
f 76//9 75//9 81//9 82//9
