# Blender v2.79 (sub 0) OBJ File: ''
# www.blender.org
mtllib BoxAnyHalf.mtl
o Cube.001
v -0.905961 0.500000 -1.000000
v -0.905961 0.905961 -1.000000
v -0.500000 0.905961 -1.000000
v -0.500000 0.500000 -1.000000
v -0.500000 1.000000 -0.905961
v -0.905961 1.000000 -0.905961
v -0.905961 1.000000 -0.500000
v -0.500000 1.000000 -0.500000
v 1.000000 0.533836 -0.905961
v 1.000000 0.905961 -0.905961
v 1.000000 0.905961 -0.500000
v 1.000000 0.142329 -0.360750
v 1.000000 -0.500000 -0.905961
v 1.000000 0.081001 -0.905961
v 1.000000 -0.057716 -0.360750
v 1.000000 -0.500000 -0.500000
v -0.500000 -0.500000 -1.000000
v -0.500000 0.000000 -1.000000
v 0.000000 0.000000 -1.000000
v 0.000000 -0.500000 -1.000000
v 0.500000 1.000000 -0.905961
v 0.000000 1.000000 -0.905961
v 0.000000 1.000000 -0.500000
v 0.500000 1.000000 -0.500000
v 1.000000 -0.355656 -0.000000
v 1.000000 -0.500000 -0.000000
v -0.500000 -1.000000 -0.500000
v 0.000000 -1.000000 -0.500000
v 0.000000 -1.000000 -0.000000
v -0.500000 -1.000000 -0.000000
v -0.905961 -0.500000 -1.000000
v -0.905961 0.000000 -1.000000
v -1.000000 0.000000 0.000000
v -1.000000 -0.500000 -0.000000
v -0.905961 1.000000 0.000000
v -0.500000 1.000000 0.000000
v 0.905961 1.000000 -0.500000
v 0.500000 1.000000 0.000000
v 0.905961 1.000000 0.000000
v 0.000000 1.000000 0.000000
v 0.000000 0.500000 -1.000000
v 0.000000 0.905961 -1.000000
v 0.500000 0.905961 -1.000000
v 0.500000 0.500000 -1.000000
v -1.000000 0.500000 -0.500000
v -1.000000 0.905961 -0.500000
v -1.000000 0.905961 -0.905961
v -1.000000 0.500000 -0.905961
v 0.905961 0.905961 -1.000000
v 0.905961 0.500000 -1.000000
v 0.500000 -1.000000 -0.000000
v 0.905961 -1.000000 -0.000000
v 1.000000 0.433141 0.000000
v 1.000000 0.905961 0.000000
v -1.000000 0.000000 -0.500000
v -1.000000 0.000000 -0.905961
v -0.905961 -1.000000 -0.500000
v -0.905961 -1.000000 -0.000000
v -1.000000 0.500000 0.000000
v 0.000000 -0.905961 -1.000000
v 0.500000 -0.500000 -1.000000
v 0.500000 -0.905961 -1.000000
v -0.905961 -1.000000 -0.905961
v -0.500000 -1.000000 -0.905961
v -1.000000 -0.905961 -0.000000
v -1.000000 -0.500000 -0.500000
v 0.500000 -1.000000 -0.500000
v 0.500000 0.000000 -1.000000
v 0.905961 0.000000 -1.000000
v 0.000000 -1.000000 -0.905961
v 0.500000 -1.000000 -0.905961
v -1.000000 -0.905961 -0.500000
v 0.905961 -0.500000 -1.000000
v 0.905961 -0.905961 -1.000000
v 0.905961 -1.000000 -0.500000
v 0.905961 -1.000000 -0.905961
v 1.000000 -0.905961 -0.500000
v 1.000000 -0.905961 -0.000000
v -0.905961 -0.905961 -1.000000
v -0.500000 -0.905961 -1.000000
v -1.000000 -0.500000 -0.905961
v -1.000000 -0.905961 -0.905961
v 1.000000 -0.905961 -0.905961
v 0.880696 0.433141 0.000000
v -1.000000 0.905961 0.000000
v 0.880696 -0.057716 -0.360750
v 0.880696 -0.355656 -0.000000
v 0.880696 0.142329 -0.360750
v 0.905961 1.000000 -0.905961
v -1.000000 0.905961 0.028454
v -0.500000 -1.000000 0.050082
v 0.000000 -1.000000 0.043360
v 0.500000 -1.000000 0.036639
v 0.905961 -1.000000 0.031181
v 1.000000 0.905961 0.001568
v -1.000000 -0.905961 0.055404
v 1.000000 -0.500000 0.022480
v -0.905961 -1.000000 0.055539
v 0.880696 0.424815 0.010329
v 1.000000 -0.339067 0.020087
v 1.000000 -0.905961 0.028519
v -0.500000 1.000000 0.020334
v -1.000000 -0.000000 0.041929
v 1.000000 0.426123 0.008705
v 0.905961 1.000000 0.001434
v -0.905961 1.000000 0.025791
v 0.880696 -0.337758 0.021671
v -1.000000 -0.500000 0.049366
v 0.000000 1.000000 0.013612
v -1.000000 0.500000 0.034492
v 0.500000 1.000000 0.006891
vt 0.562500 0.261755
vt 0.613245 0.261755
vt 0.613245 0.312500
vt 0.562500 0.312500
vt 0.812500 0.511755
vt 0.863245 0.511755
vt 0.863245 0.562500
vt 0.812500 0.562500
vt 0.562500 0.511755
vt 0.611900 0.511755
vt 0.606639 0.562500
vt 0.562500 0.562500
vt 0.437500 0.511755
vt 0.500000 0.511755
vt 0.500000 0.562500
vt 0.437500 0.562500
vt 0.437500 0.312500
vt 0.500000 0.312500
vt 0.500000 0.375000
vt 0.437500 0.375000
vt 0.687500 0.511755
vt 0.750000 0.511755
vt 0.750000 0.562500
vt 0.687500 0.562500
vt 0.500000 0.625000
vt 0.437500 0.625000
vt 0.187500 0.562500
vt 0.250000 0.562500
vt 0.250000 0.625000
vt 0.187500 0.625000
vt 0.437500 0.261755
vt 0.500000 0.261755
vt 0.437500 0.118829
vt 0.500000 0.119759
vt 0.500000 0.125000
vt 0.437500 0.125000
vt 0.863245 0.625000
vt 0.812500 0.625000
vt 0.636755 0.562500
vt 0.687500 0.625000
vt 0.636755 0.625000
vt 0.750000 0.625000
vt 0.562500 0.375000
vt 0.613245 0.375000
vt 0.613245 0.437500
vt 0.562500 0.437500
vt 0.562500 0.187500
vt 0.613245 0.187500
vt 0.613245 0.238245
vt 0.562500 0.238245
vt 0.613245 0.488245
vt 0.562500 0.488245
vt 0.500000 0.187500
vt 0.500000 0.238245
vt 0.136755 0.562500
vt 0.136755 0.625000
vt 0.562500 0.120689
vt 0.562500 0.125000
vt 0.386755 0.375000
vt 0.437500 0.437500
vt 0.386755 0.437500
vt 0.136755 0.511755
vt 0.187500 0.511755
vt 0.386755 0.118074
vt 0.386755 0.125000
vt 0.437500 0.187500
vt 0.312500 0.562500
vt 0.312500 0.625000
vt 0.500000 0.437500
vt 0.500000 0.488245
vt 0.250000 0.511755
vt 0.312500 0.511755
vt 0.386755 0.187500
vt 0.437500 0.488245
vt 0.386755 0.488245
vt 0.363245 0.562500
vt 0.363245 0.625000
vt 0.363245 0.511755
vt 0.386755 0.562500
vt 0.386755 0.625000
vt 0.386755 0.261755
vt 0.386755 0.312500
vt 0.437500 0.238245
vt 0.386755 0.238245
vt 0.386755 0.511755
vt 0.614492 0.625000
vt 0.562500 0.625000
vt 0.613245 0.121443
vt 0.613245 0.125000
vt 0.500000 0.562500
vt 0.500000 0.625000
vt 0.562500 0.562500
vt 0.562500 0.625000
vt 0.500000 0.628480
vt 0.500000 0.628754
vt 0.625000 0.511755
vt 0.625000 0.511755
vt 0.613245 0.500000
vt 0.386755 0.500000
vt 0.375000 0.488245
vt 0.625000 0.261755
vt 0.625000 0.261755
vt 0.613245 0.250000
vt 0.125000 0.511755
vt 0.136755 0.500000
vt 0.187500 0.500000
vt 0.625000 0.187500
vt 0.625000 0.238245
vt 0.625000 0.437500
vt 0.625000 0.488245
vt 0.125000 0.625000
vt 0.125000 0.562500
vt 0.250000 0.500000
vt 0.312500 0.500000
vt 0.625000 0.121776
vt 0.625000 0.125000
vt 0.625000 0.312500
vt 0.625000 0.375000
vt 0.363245 0.628898
vt 0.386755 0.628565
vt 0.363245 0.500000
vt 0.636755 0.511755
vt 0.750000 0.626702
vt 0.687500 0.625861
vt 0.636755 0.625179
vt 0.863245 0.628224
vt 0.812500 0.627542
vt 0.562500 0.626508
vt 0.562500 0.626789
vt 0.437500 0.627810
vt 0.136755 0.631942
vt 0.125000 0.631926
vt 0.614467 0.625196
vt 0.312500 0.629580
vt 0.250000 0.630420
vt 0.187500 0.631260
vn 0.0000 0.0000 -1.0000
vn 0.0000 1.0000 0.0000
vn 1.0000 -0.0000 0.0000
vn 0.0000 -1.0000 -0.0000
vn -0.7023 0.0106 0.7118
vn -1.0000 -0.0000 0.0000
vn -0.7133 -0.2913 0.6375
vn -0.7121 0.3040 0.6329
vn 0.0000 0.7710 0.6368
vn 0.0000 -0.0000 1.0000
vn 0.0000 -0.7785 0.6276
vn 0.5555 0.7563 0.3455
vn 0.0000 0.7710 -0.6368
vn 0.5074 0.2785 0.8154
vn 0.5774 0.5774 -0.5773
vn 0.5773 -0.5774 -0.5774
vn -0.5774 0.5774 -0.5773
vn -0.5773 -0.5773 -0.5774
vn 0.0000 -0.7071 -0.7071
vn 0.7071 0.0000 -0.7071
vn -0.7071 0.0000 -0.7071
vn -0.7071 0.7071 0.0000
vn 0.0000 0.7071 -0.7071
vn 0.7071 -0.7071 -0.0000
vn -0.7071 -0.7071 -0.0000
vn 0.7071 0.7071 0.0000
vn -0.2908 0.7229 0.6267
vn 0.3035 -0.7116 0.6336
vn 0.7225 -0.2903 0.6275
vn 0.0094 0.7123 0.7018
vn 0.3022 0.7218 0.6227
vn -0.0000 -0.7785 -0.6276
vn 0.5551 -0.7492 0.3612
vn 0.5129 -0.2511 0.8209
vn 0.7118 0.0104 0.7023
vn -0.2920 -0.7127 0.6378
vn 0.7213 0.3028 0.6230
vn 0.0096 -0.7018 0.7123
usemtl Material.001
s 1
f 1/1/1 2/2/1 3/3/1 4/4/1
f 5/5/2 6/6/2 7/7/2 8/8/2
f 9/9/3 10/10/3 11/11/3 12/12/3
f 13/13/3 14/14/3 15/15/3 16/16/3
f 17/17/1 18/18/1 19/19/1 20/20/1
f 21/21/2 22/22/2 23/23/2 24/24/2
f 16/16/3 15/15/3 25/25/3 26/26/3
f 27/27/4 28/28/4 29/29/4 30/30/4
f 31/31/1 32/32/1 18/18/1 17/17/1
f 108/33/5 103/34/5 33/35/6 34/36/6
f 8/8/2 7/7/2 35/37/2 36/38/2
f 37/39/2 24/24/2 38/40/2 39/41/2
f 24/24/2 23/23/2 40/42/2 38/40/2
f 22/22/2 5/5/2 8/8/2 23/23/2
f 23/23/2 8/8/2 36/38/2 40/42/2
f 41/43/1 42/44/1 43/45/1 44/46/1
f 45/47/6 46/48/6 47/49/6 48/50/6
f 44/46/1 43/45/1 49/51/1 50/52/1
f 55/53/6 45/47/6 48/50/6 56/54/6
f 57/55/4 27/27/4 30/30/4 58/56/4
f 103/34/5 110/57/5 59/58/6 33/35/6
f 60/59/1 20/20/1 61/60/1 62/61/1
f 63/62/4 64/63/4 27/27/4 57/55/4
f 96/64/7 108/33/5 34/36/6 65/65/6
f 34/36/6 33/35/6 55/53/6 66/66/6
f 28/28/4 67/67/4 51/68/4 29/29/4
f 68/69/1 44/46/1 50/52/1 69/70/1
f 70/71/4 71/72/4 67/67/4 28/28/4
f 65/65/6 34/36/6 66/66/6 72/73/6
f 62/61/1 61/60/1 73/74/1 74/75/1
f 67/67/4 75/76/4 52/77/4 51/68/4
f 71/72/4 76/78/4 75/76/4 67/67/4
f 14/14/3 9/9/3 12/12/3 15/15/3
f 77/79/3 16/16/3 26/26/3 78/80/3
f 18/18/1 4/4/1 41/43/1 19/19/1
f 79/81/1 31/31/1 17/17/1 80/82/1
f 64/63/4 70/71/4 28/28/4 27/27/4
f 72/73/6 66/66/6 81/83/6 82/84/6
f 32/32/1 1/1/1 4/4/1 18/18/1
f 83/85/3 13/13/3 16/16/3 77/79/3
f 80/82/1 17/17/1 20/20/1 60/59/1
f 20/20/1 19/19/1 68/69/1 61/60/1
f 61/60/1 68/69/1 69/70/1 73/74/1
f 19/19/1 41/43/1 44/46/1 68/69/1
f 4/4/1 3/3/1 42/44/1 41/43/1
f 12/12/3 11/11/3 54/86/3 53/87/3
f 66/66/6 55/53/6 56/54/6 81/83/6
f 33/35/6 59/58/6 45/47/6 55/53/6
f 110/57/5 90/88/8 85/89/6 59/58/6
f 59/58/6 85/89/6 46/48/6 45/47/6
f 25/25/9 15/15/9 86/90/9 87/91/9
f 15/15/10 12/12/10 88/92/10 86/90/10
f 12/12/11 53/87/11 84/93/11 88/92/11
f 100/94/12 25/25/13 87/91/13 107/95/14
f 89/96/15 10/97/15 49/98/15
f 74/75/16 83/99/16 76/100/16
f 6/101/17 2/102/17 47/103/17
f 63/62/18 82/104/18 79/105/18
f 64/63/19 63/62/19 79/105/19 80/106/19
f 13/13/20 83/85/20 74/75/20 73/74/20
f 31/31/21 79/81/21 82/84/21 81/83/21
f 7/107/22 6/108/22 47/49/22 46/48/22
f 21/109/23 89/110/23 49/51/23 43/45/23
f 75/76/24 76/78/24 83/85/24 77/79/24
f 57/55/25 58/56/25 65/111/25 72/112/25
f 71/72/19 70/71/19 60/113/19 62/114/19
f 9/9/20 14/14/20 69/70/20 50/52/20
f 1/1/21 32/32/21 56/54/21 48/50/21
f 37/39/26 39/41/26 54/86/26 11/11/26
f 106/115/27 35/116/22 85/89/22 90/88/8
f 5/117/23 22/118/23 42/44/23 3/3/23
f 94/119/28 52/77/24 78/80/24 101/120/29
f 70/71/19 64/63/19 80/106/19 60/113/19
f 14/14/20 13/13/20 73/74/20 69/70/20
f 32/32/21 31/31/21 81/83/21 56/54/21
f 35/116/22 7/107/22 46/48/22 85/89/22
f 22/118/23 21/109/23 43/45/23 42/44/23
f 52/77/24 75/76/24 77/79/24 78/80/24
f 63/62/25 57/55/25 72/112/25 82/104/25
f 76/78/19 71/72/19 62/114/19 74/121/19
f 10/10/20 9/9/20 50/52/20 49/51/20
f 2/2/21 1/1/21 48/50/21 47/49/21
f 89/122/26 37/39/26 11/11/26 10/10/26
f 6/101/23 5/117/23 3/3/23 2/2/23
f 89/122/2 21/21/2 24/24/2 37/39/2
f 38/40/2 40/42/2 109/123/30 111/124/30
f 39/41/2 38/40/2 111/124/30 105/125/31
f 36/38/2 35/37/2 106/126/27 102/127/30
f 40/42/2 36/38/2 102/127/30 109/123/30
f 53/87/32 104/128/33 99/129/34 84/93/32
f 26/26/3 25/25/3 100/94/12 97/130/35
f 78/80/3 26/26/3 97/130/35 101/120/29
f 58/56/25 98/131/36 96/132/7 65/111/25
f 53/87/3 54/86/3 95/133/37 104/128/33
f 39/41/26 105/125/31 95/133/37 54/86/26
f 51/68/4 52/77/4 94/119/28 93/134/38
f 29/29/4 51/68/4 93/134/38 92/135/38
f 58/56/4 30/30/4 91/136/38 98/131/36
f 30/30/4 29/29/4 92/135/38 91/136/38
usemtl Material.002
f 86/90/3 88/92/3 84/93/3 87/91/3
f 87/91/3 84/93/3 99/129/34 107/95/14
usemtl Material.003
f 109/123/30 103/34/5 107/95/14
f 93/134/38 94/119/28 101/120/29
f 97/130/35 100/94/12 107/95/14
f 93/134/38 101/120/29 97/130/35
f 91/136/38 92/135/38 108/33/5
f 96/64/7 98/131/36 91/136/38
f 103/34/5 108/33/5 92/135/38
f 106/126/27 90/88/8 110/57/5
f 108/33/5 96/64/7 91/136/38
f 106/126/27 110/57/5 102/127/30
f 109/123/30 110/57/5 103/34/5
f 95/133/37 105/125/31 99/129/34
f 111/124/30 109/123/30 99/129/34
f 110/57/5 109/123/30 102/127/30
f 92/135/38 93/134/38 107/95/14
f 93/134/38 97/130/35 107/95/14
f 109/123/30 107/95/14 99/129/34
f 104/128/33 95/133/37 99/129/34
f 92/135/38 107/95/14 103/34/5
f 99/129/34 105/125/31 111/124/30
