# Blender v2.79 (sub 0) OBJ File: ''
# www.blender.org
mtllib BoxUpHalf.mtl
o Cube.001
v -0.905961 0.500000 -1.000000
v -0.905961 0.905961 -1.000000
v -0.500000 0.905961 -1.000000
v -0.500000 0.500000 -1.000000
v -0.500000 1.000000 -0.905961
v -0.905961 1.000000 -0.905961
v -0.905961 1.000000 -0.500000
v -0.500000 1.000000 -0.500000
v 1.000000 0.533836 -0.905961
v 1.000000 0.905961 -0.905961
v 1.000000 0.905961 -0.500000
v 1.000000 0.679901 -0.500000
v 1.000000 -0.500000 -0.905961
v 1.000000 0.081001 -0.905961
v 1.000000 0.430677 -0.500000
v 1.000000 -0.500000 -0.500000
v -0.500000 -0.500000 -1.000000
v -0.500000 0.000000 -1.000000
v 0.000000 0.000000 -1.000000
v 0.000000 -0.500000 -1.000000
v 0.500000 1.000000 -0.905961
v 0.000000 1.000000 -0.905961
v 0.000000 1.000000 -0.500000
v 0.500000 1.000000 -0.500000
v 1.000000 0.191507 0.000000
v 1.000000 -0.500000 -0.000000
v -0.500000 -1.000000 -0.500000
v 0.000000 -1.000000 -0.500000
v 0.000000 -1.000000 -0.000000
v -0.500000 -1.000000 -0.000000
v -0.905961 -0.500000 -1.000000
v -0.905961 0.000000 -1.000000
v -1.000000 0.000000 0.000000
v -1.000000 -0.500000 -0.000000
v -0.905961 1.000000 0.000000
v -0.500000 1.000000 0.000000
v 0.905961 1.000000 -0.500000
v 0.500000 1.000000 0.000000
v 0.905961 1.000000 0.000000
v 0.000000 1.000000 0.000000
v 0.000000 0.500000 -1.000000
v 0.000000 0.905961 -1.000000
v 0.500000 0.905961 -1.000000
v 0.500000 0.500000 -1.000000
v -1.000000 0.500000 -0.500000
v -1.000000 0.905961 -0.500000
v -1.000000 0.905961 -0.905961
v -1.000000 0.500000 -0.905961
v 0.905961 0.905961 -1.000000
v 0.905961 0.500000 -1.000000
v 0.500000 -1.000000 -0.000000
v 0.905961 -1.000000 -0.000000
v 1.000000 0.440688 0.000000
v 1.000000 0.905961 0.000000
v -1.000000 0.000000 -0.500000
v -1.000000 0.000000 -0.905961
v -0.905961 -1.000000 -0.500000
v -0.905961 -1.000000 -0.000000
v -1.000000 0.500000 0.000000
v 0.000000 -0.905961 -1.000000
v 0.500000 -0.500000 -1.000000
v 0.500000 -0.905961 -1.000000
v -0.905961 -1.000000 -0.905961
v -0.500000 -1.000000 -0.905961
v -1.000000 -0.905961 -0.000000
v -1.000000 -0.500000 -0.500000
v 0.500000 -1.000000 -0.500000
v 0.500000 0.000000 -1.000000
v 0.905961 0.000000 -1.000000
v 0.000000 -1.000000 -0.905961
v 0.500000 -1.000000 -0.905961
v -1.000000 -0.905961 -0.500000
v 0.905961 -0.500000 -1.000000
v 0.905961 -0.905961 -1.000000
v 0.905961 -1.000000 -0.500000
v 0.905961 -1.000000 -0.905961
v 1.000000 -0.905961 -0.500000
v 1.000000 -0.905961 -0.000000
v -0.905961 -0.905961 -1.000000
v -0.500000 -0.905961 -1.000000
v -1.000000 -0.500000 -0.905961
v -1.000000 -0.905961 -0.905961
v 1.000000 -0.905961 -0.905961
v 0.880696 0.440688 0.000000
v -1.000000 0.905961 0.000000
v 0.880696 0.430677 -0.500000
v 0.880696 0.191507 0.000000
v 0.880696 0.679901 -0.500000
v 0.905961 1.000000 -0.905961
v -1.000000 0.905961 0.063584
v -0.500000 -1.000000 0.069493
v 0.000000 -1.000000 0.054382
v 0.500000 -1.000000 0.039272
v 0.905961 -1.000000 0.027004
v 1.000000 0.905961 0.003143
v -1.000000 -0.905961 0.083566
v 1.000000 -0.500000 0.018648
v -0.905961 -1.000000 0.081761
v 0.880696 0.446341 0.011817
v 1.000000 0.196751 0.010964
v 1.000000 -0.905961 0.023125
v -0.500000 1.000000 0.047436
v -1.000000 -0.000000 0.073575
v 1.000000 0.444626 0.008230
v 0.905961 1.000000 0.004948
v -0.905961 1.000000 0.059705
v 0.880696 0.198467 0.014550
v -1.000000 -0.500000 0.079089
v 0.000000 1.000000 0.032326
v -1.000000 0.500000 0.068061
v 0.500000 1.000000 0.017216
vt 0.562500 0.261755
vt 0.613245 0.261755
vt 0.613245 0.312500
vt 0.562500 0.312500
vt 0.812500 0.511755
vt 0.863245 0.511755
vt 0.863245 0.562500
vt 0.812500 0.562500
vt 0.562500 0.511755
vt 0.611900 0.511755
vt 0.606639 0.562500
vt 0.562500 0.562500
vt 0.437500 0.511755
vt 0.500000 0.511755
vt 0.500000 0.562500
vt 0.437500 0.562500
vt 0.437500 0.312500
vt 0.500000 0.312500
vt 0.500000 0.375000
vt 0.437500 0.375000
vt 0.687500 0.511755
vt 0.750000 0.511755
vt 0.750000 0.562500
vt 0.687500 0.562500
vt 0.500000 0.625000
vt 0.437500 0.625000
vt 0.187500 0.562500
vt 0.250000 0.562500
vt 0.250000 0.625000
vt 0.187500 0.625000
vt 0.437500 0.261755
vt 0.500000 0.261755
vt 0.437500 0.115114
vt 0.500000 0.115803
vt 0.500000 0.125000
vt 0.437500 0.125000
vt 0.863245 0.625000
vt 0.812500 0.625000
vt 0.636755 0.562500
vt 0.687500 0.625000
vt 0.636755 0.625000
vt 0.750000 0.625000
vt 0.562500 0.375000
vt 0.613245 0.375000
vt 0.613245 0.437500
vt 0.562500 0.437500
vt 0.562500 0.187500
vt 0.613245 0.187500
vt 0.613245 0.238245
vt 0.562500 0.238245
vt 0.613245 0.488245
vt 0.562500 0.488245
vt 0.500000 0.187500
vt 0.500000 0.238245
vt 0.136755 0.562500
vt 0.136755 0.625000
vt 0.562500 0.116492
vt 0.562500 0.125000
vt 0.386755 0.375000
vt 0.437500 0.437500
vt 0.386755 0.437500
vt 0.136755 0.511755
vt 0.187500 0.511755
vt 0.386755 0.114554
vt 0.386755 0.125000
vt 0.437500 0.187500
vt 0.312500 0.562500
vt 0.312500 0.625000
vt 0.500000 0.437500
vt 0.500000 0.488245
vt 0.250000 0.511755
vt 0.312500 0.511755
vt 0.386755 0.187500
vt 0.437500 0.488245
vt 0.386755 0.488245
vt 0.363245 0.562500
vt 0.363245 0.625000
vt 0.363245 0.511755
vt 0.386755 0.562500
vt 0.386755 0.625000
vt 0.386755 0.261755
vt 0.386755 0.312500
vt 0.437500 0.238245
vt 0.386755 0.238245
vt 0.386755 0.511755
vt 0.614492 0.625000
vt 0.562500 0.625000
vt 0.613245 0.117052
vt 0.613245 0.125000
vt 0.500000 0.562500
vt 0.500000 0.625000
vt 0.562500 0.562500
vt 0.562500 0.625000
vt 0.500000 0.626370
vt 0.500000 0.626819
vt 0.625000 0.511755
vt 0.625000 0.511755
vt 0.613245 0.500000
vt 0.386755 0.500000
vt 0.375000 0.488245
vt 0.625000 0.261755
vt 0.625000 0.261755
vt 0.613245 0.250000
vt 0.125000 0.511755
vt 0.136755 0.500000
vt 0.187500 0.500000
vt 0.625000 0.187500
vt 0.625000 0.238245
vt 0.625000 0.437500
vt 0.625000 0.488245
vt 0.125000 0.625000
vt 0.125000 0.562500
vt 0.250000 0.500000
vt 0.312500 0.500000
vt 0.625000 0.117537
vt 0.625000 0.125000
vt 0.625000 0.312500
vt 0.625000 0.375000
vt 0.363245 0.628375
vt 0.386755 0.627891
vt 0.363245 0.500000
vt 0.636755 0.511755
vt 0.750000 0.629041
vt 0.687500 0.627152
vt 0.636755 0.625618
vt 0.863245 0.632463
vt 0.812500 0.630929
vt 0.562500 0.626029
vt 0.562500 0.626477
vt 0.437500 0.627331
vt 0.136755 0.635220
vt 0.125000 0.635446
vt 0.614443 0.625393
vt 0.312500 0.629909
vt 0.250000 0.631798
vt 0.187500 0.633687
vn 0.0000 0.0000 -1.0000
vn 0.0000 1.0000 0.0000
vn 1.0000 0.0000 0.0000
vn 0.0000 -1.0000 -0.0000
vn -0.6963 0.0079 0.7177
vn -1.0000 -0.0000 0.0000
vn -0.7073 -0.2936 0.6431
vn -0.7064 0.3031 0.6396
vn 0.0000 0.9021 0.4315
vn 0.0000 -0.0000 1.0000
vn 0.0000 -0.9021 -0.4316
vn 0.5680 0.7029 0.4280
vn 0.0000 0.9021 -0.4315
vn 0.4484 0.3004 0.8419
vn 0.5774 0.5774 -0.5773
vn 0.5773 -0.5774 -0.5774
vn -0.5774 0.5774 -0.5773
vn -0.5773 -0.5773 -0.5774
vn 0.0000 -0.7071 -0.7071
vn 0.7071 0.0000 -0.7071
vn -0.7071 0.0000 -0.7071
vn -0.7071 0.7071 0.0000
vn 0.0000 0.7071 -0.7071
vn 0.7071 -0.7071 -0.0000
vn -0.7071 -0.7071 -0.0000
vn 0.7071 0.7071 0.0000
vn -0.2838 0.7223 0.6306
vn 0.3104 -0.7123 0.6295
vn 0.7280 -0.2913 0.6206
vn 0.0212 0.7110 0.7029
vn 0.3093 0.7198 0.6214
vn -0.0000 -0.9021 0.4316
vn 0.6104 -0.4251 0.6684
vn 0.2244 -0.2344 0.9459
vn 0.7177 0.0077 0.6963
vn -0.2846 -0.7148 0.6388
vn 0.7271 0.3005 0.6173
vn 0.0215 -0.7032 0.7107
usemtl Material.001
s 1
f 1/1/1 2/2/1 3/3/1 4/4/1
f 5/5/2 6/6/2 7/7/2 8/8/2
f 9/9/3 10/10/3 11/11/3 12/12/3
f 13/13/3 14/14/3 15/15/3 16/16/3
f 17/17/1 18/18/1 19/19/1 20/20/1
f 21/21/2 22/22/2 23/23/2 24/24/2
f 16/16/3 15/15/3 25/25/3 26/26/3
f 27/27/4 28/28/4 29/29/4 30/30/4
f 31/31/1 32/32/1 18/18/1 17/17/1
f 108/33/5 103/34/5 33/35/6 34/36/6
f 8/8/2 7/7/2 35/37/2 36/38/2
f 37/39/2 24/24/2 38/40/2 39/41/2
f 24/24/2 23/23/2 40/42/2 38/40/2
f 22/22/2 5/5/2 8/8/2 23/23/2
f 23/23/2 8/8/2 36/38/2 40/42/2
f 41/43/1 42/44/1 43/45/1 44/46/1
f 45/47/6 46/48/6 47/49/6 48/50/6
f 44/46/1 43/45/1 49/51/1 50/52/1
f 55/53/6 45/47/6 48/50/6 56/54/6
f 57/55/4 27/27/4 30/30/4 58/56/4
f 103/34/5 110/57/5 59/58/6 33/35/6
f 60/59/1 20/20/1 61/60/1 62/61/1
f 63/62/4 64/63/4 27/27/4 57/55/4
f 96/64/7 108/33/5 34/36/6 65/65/6
f 34/36/6 33/35/6 55/53/6 66/66/6
f 28/28/4 67/67/4 51/68/4 29/29/4
f 68/69/1 44/46/1 50/52/1 69/70/1
f 70/71/4 71/72/4 67/67/4 28/28/4
f 65/65/6 34/36/6 66/66/6 72/73/6
f 62/61/1 61/60/1 73/74/1 74/75/1
f 67/67/4 75/76/4 52/77/4 51/68/4
f 71/72/4 76/78/4 75/76/4 67/67/4
f 14/14/3 9/9/3 12/12/3 15/15/3
f 77/79/3 16/16/3 26/26/3 78/80/3
f 18/18/1 4/4/1 41/43/1 19/19/1
f 79/81/1 31/31/1 17/17/1 80/82/1
f 64/63/4 70/71/4 28/28/4 27/27/4
f 72/73/6 66/66/6 81/83/6 82/84/6
f 32/32/1 1/1/1 4/4/1 18/18/1
f 83/85/3 13/13/3 16/16/3 77/79/3
f 80/82/1 17/17/1 20/20/1 60/59/1
f 20/20/1 19/19/1 68/69/1 61/60/1
f 61/60/1 68/69/1 69/70/1 73/74/1
f 19/19/1 41/43/1 44/46/1 68/69/1
f 4/4/1 3/3/1 42/44/1 41/43/1
f 12/12/3 11/11/3 54/86/3 53/87/3
f 66/66/6 55/53/6 56/54/6 81/83/6
f 33/35/6 59/58/6 45/47/6 55/53/6
f 110/57/5 90/88/8 85/89/6 59/58/6
f 59/58/6 85/89/6 46/48/6 45/47/6
f 25/25/9 15/15/9 86/90/9 87/91/9
f 15/15/10 12/12/10 88/92/10 86/90/10
f 12/12/11 53/87/11 84/93/11 88/92/11
f 100/94/12 25/25/13 87/91/13 107/95/14
f 89/96/15 10/97/15 49/98/15
f 74/75/16 83/99/16 76/100/16
f 6/101/17 2/102/17 47/103/17
f 63/62/18 82/104/18 79/105/18
f 64/63/19 63/62/19 79/105/19 80/106/19
f 13/13/20 83/85/20 74/75/20 73/74/20
f 31/31/21 79/81/21 82/84/21 81/83/21
f 7/107/22 6/108/22 47/49/22 46/48/22
f 21/109/23 89/110/23 49/51/23 43/45/23
f 75/76/24 76/78/24 83/85/24 77/79/24
f 57/55/25 58/56/25 65/111/25 72/112/25
f 71/72/19 70/71/19 60/113/19 62/114/19
f 9/9/20 14/14/20 69/70/20 50/52/20
f 1/1/21 32/32/21 56/54/21 48/50/21
f 37/39/26 39/41/26 54/86/26 11/11/26
f 106/115/27 35/116/22 85/89/22 90/88/8
f 5/117/23 22/118/23 42/44/23 3/3/23
f 94/119/28 52/77/24 78/80/24 101/120/29
f 70/71/19 64/63/19 80/106/19 60/113/19
f 14/14/20 13/13/20 73/74/20 69/70/20
f 32/32/21 31/31/21 81/83/21 56/54/21
f 35/116/22 7/107/22 46/48/22 85/89/22
f 22/118/23 21/109/23 43/45/23 42/44/23
f 52/77/24 75/76/24 77/79/24 78/80/24
f 63/62/25 57/55/25 72/112/25 82/104/25
f 76/78/19 71/72/19 62/114/19 74/121/19
f 10/10/20 9/9/20 50/52/20 49/51/20
f 2/2/21 1/1/21 48/50/21 47/49/21
f 89/122/26 37/39/26 11/11/26 10/10/26
f 6/101/23 5/117/23 3/3/23 2/2/23
f 89/122/2 21/21/2 24/24/2 37/39/2
f 38/40/2 40/42/2 109/123/30 111/124/30
f 39/41/2 38/40/2 111/124/30 105/125/31
f 36/38/2 35/37/2 106/126/27 102/127/30
f 40/42/2 36/38/2 102/127/30 109/123/30
f 53/87/32 104/128/33 99/129/34 84/93/32
f 26/26/3 25/25/3 100/94/12 97/130/35
f 78/80/3 26/26/3 97/130/35 101/120/29
f 58/56/25 98/131/36 96/132/7 65/111/25
f 53/87/3 54/86/3 95/133/37 104/128/33
f 39/41/26 105/125/31 95/133/37 54/86/26
f 51/68/4 52/77/4 94/119/28 93/134/38
f 29/29/4 51/68/4 93/134/38 92/135/38
f 58/56/4 30/30/4 91/136/38 98/131/36
f 30/30/4 29/29/4 92/135/38 91/136/38
usemtl Material.002
f 86/90/3 88/92/3 84/93/3 87/91/3
f 87/91/3 84/93/3 99/129/34 107/95/14
usemtl Material.003
f 103/34/5 92/135/38 107/95/14
f 105/125/31 111/124/30 99/129/34
f 109/123/30 102/127/30 103/34/5
f 106/126/27 90/88/8 110/57/5
f 103/34/5 108/33/5 91/136/38
f 106/126/27 110/57/5 102/127/30
f 111/124/30 109/123/30 99/129/34
f 104/128/33 95/133/37 99/129/34
f 99/129/34 95/133/37 105/125/31
f 102/127/30 110/57/5 103/34/5
f 108/33/5 96/64/7 98/131/36
f 98/131/36 91/136/38 108/33/5
f 92/135/38 93/134/38 107/95/14
f 94/119/28 101/120/29 97/130/35
f 97/130/35 100/94/12 107/95/14
f 99/129/34 109/123/30 107/95/14
f 94/119/28 97/130/35 93/134/38
f 107/95/14 109/123/30 103/34/5
f 103/34/5 91/136/38 92/135/38
f 93/134/38 97/130/35 107/95/14
